name C:/MyDriveSym/Projects/mobilecap/Data\Session20210903_0002\mocap\ForceDataProcessed\walkingTS2_forces.mot
datacolumns 19
datarows 12
range 0.00000000 0.00550000
endheader 
time	R_ground_force_vx	R_ground_force_vy	R_ground_force_vz	R_ground_force_px	R_ground_force_py	R_ground_force_pz	R_ground_torque_x	R_ground_torque_y	R_ground_torque_z	L_ground_force_vx	L_ground_force_vy	L_ground_force_vz	L_ground_force_px	L_ground_force_py	L_ground_force_pz	L_ground_torque_x	L_ground_torque_y	L_ground_torque_z	
          0.00000000	        -10.66912700	         60.51210900	          1.38856700	          0.09134400	          0.00600000	         -0.14906600	          0.00000000	          0.49517300	          0.00000000	          0.00000000	          0.00000000	          0.00000000	          0.71542000	          0.00000000	         -0.32492300	          0.00000000	          0.00000000	          0.00000000	
          0.00050000	        -10.93111400	         61.81723800	          1.36184800	          0.09134400	          0.00600000	         -0.14906600	          0.00000000	          0.49460200	          0.00000000	          0.00000000	          0.00000000	          0.00000000	          0.71542000	          0.00000000	         -0.32492300	          0.00000000	          0.00000000	          0.00000000	
          0.00100000	        -11.19605700	         63.13562900	          1.33455400	          0.09134400	          0.00600000	         -0.14906600	          0.00000000	          0.49406100	          0.00000000	          0.00000000	          0.00000000	          0.00000000	          0.71542000	          0.00000000	         -0.32492300	          0.00000000	          0.00000000	          0.00000000	
          0.00150000	        -11.46396600	         64.46730800	          1.30668100	          0.09134400	          0.00600000	         -0.14906600	          0.00000000	          0.49355000	          0.00000000	          0.00000000	          0.00000000	          0.00000000	          0.71542000	          0.00000000	         -0.32492300	          0.00000000	          0.00000000	          0.00000000	
          0.00200000	        -11.73485200	         65.81230300	          1.27822000	          0.09186500	          0.00600000	         -0.14905800	          0.00000000	          0.49306600	          0.00000000	          0.00000000	          0.00000000	          0.00000000	          0.71542000	          0.00000000	         -0.32492300	          0.00000000	          0.00000000	          0.00000000	
          0.00250000	        -12.00872500	         67.17063700	          1.24916700	          0.09237400	          0.00600000	         -0.14905000	          0.00000000	          0.49260900	          0.00000000	          0.00000000	          0.00000000	          0.00000000	          0.71542000	          0.00000000	         -0.32492300	          0.00000000	          0.00000000	          0.00000000	
          0.00300000	        -12.28559600	         68.54233300	          1.21951500	          0.09287100	          0.00600000	         -0.14904200	          0.00000000	          0.49217700	          0.00000000	          0.00000000	          0.00000000	          0.00000000	          0.71542000	          0.00000000	         -0.32492300	          0.00000000	          0.00000000	          0.00000000	
          0.00350000	        -12.56547300	         69.92741400	          1.18925900	          0.09335700	          0.00600000	         -0.14903300	          0.00000000	          0.49177000	          0.00000000	          0.00000000	          0.00000000	          0.00000000	          0.71542000	          0.00000000	         -0.32492300	          0.00000000	          0.00000000	          0.00000000	
          0.00400000	        -12.84836600	         71.32589700	          1.15839200	          0.09383300	          0.00600000	         -0.14902500	          0.00000000	          0.49138600	          0.00000000	          0.00000000	          0.00000000	          0.00000000	          0.71542000	          0.00000000	         -0.32492300	          0.00000000	          0.00000000	          0.00000000	
          0.00450000	        -13.13428400	         72.73780200	          1.12690900	          0.09429800	          0.00600000	         -0.14901600	          0.00000000	          0.49102500	          0.00000000	          0.00000000	          0.00000000	          0.00000000	          0.71542000	          0.00000000	         -0.32492300	          0.00000000	          0.00000000	          0.00000000	
          0.00500000	        -13.42323500	         74.16314300	          1.09480200	          0.09475400	          0.00600000	         -0.14900700	          0.00000000	          0.49068500	          0.00000000	          0.00000000	          0.00000000	          0.00000000	          0.71542000	          0.00000000	         -0.32492300	          0.00000000	          0.00000000	          0.00000000	
          0.00550000	        -13.71522900	         75.60193500	          1.06206700	          0.09520000	          0.00600000	         -0.14899800	          0.00000000	          0.49036600	          0.00000000	          0.00000000	          0.00000000	          0.00000000	          0.71542000	          0.00000000	         -0.32492300	          0.00000000	          0.00000000	          0.00000000	
